<svg width="103" height="103" viewBox="0 0 103 103" fill="none" xmlns="http://www.w3.org/2000/svg">
<mask id="mask0_0_1" style="mask-type:alpha" maskUnits="userSpaceOnUse" x="0" y="0" width="103" height="103">
<rect width="103" height="103" rx="34" fill="#C4C4C4"/>
</mask>
<g mask="url(#mask0_0_1)">
<rect width="103" height="103" fill="#FFC327"/>
</g>
<path d="M63.9968 47.3813H39.0029C38.488 47.3813 38.0713 47.796 38.0713 48.3085C38.0713 55.6777 44.095 61.6734 51.4999 61.6734C58.9047 61.6734 64.9285 55.6777 64.9285 48.3085C64.9285 47.796 64.5118 47.3813 63.9968 47.3813ZM51.4999 59.8191C45.4361 59.8191 40.4477 55.1508 39.9719 49.2357H63.0279C62.5521 55.1508 57.5637 59.8191 51.4999 59.8191Z" fill="black"/>
<path d="M51.5 16C34.6824 16 21 29.6157 21 46.3525V55.6475C21 65.9454 26.1844 75.0557 34.0871 80.5459C34.0875 80.5462 34.0882 80.5465 34.0886 80.5469C39.0297 83.9792 45.0306 86 51.5 86C61.9275 86 71.146 80.7627 76.6488 72.7953C76.653 72.7911 76.6548 72.7852 76.659 72.781C80.025 67.9013 82 62.0006 82 55.6475V46.3525C82 29.6157 68.3176 16 51.5 16ZM26.0776 68.7407C24.2083 65.1611 23.0783 61.1424 22.8948 56.8814C23.7164 59.0851 24.7902 61.1672 26.0776 63.0967V68.7407ZM33.8145 78.0365C31.5598 76.2689 29.5769 74.1747 27.9408 71.8219V65.6075C29.6472 67.6715 31.6257 69.502 33.8145 71.0583V78.0365ZM42.2656 82.6166C39.9188 81.8185 37.707 80.7294 35.6777 79.3854V72.2931C37.7277 73.5361 39.9371 74.542 42.2656 75.2799V82.6166ZM50.5684 84.1222C48.3497 84.0511 46.1936 83.7317 44.1288 83.1838V75.8044C46.2003 76.3181 48.3553 76.6158 50.5684 76.6823V84.1222ZM58.8666 83.1851C56.8033 83.7323 54.6487 84.0511 52.4316 84.1222V76.6823C54.6431 76.6158 56.7965 76.3184 58.8666 75.8054V83.1851ZM66.478 79.9246C64.6834 81.0251 62.7566 81.9293 60.7299 82.6181V75.2814C62.7452 74.6432 64.6675 73.7984 66.478 72.778V79.9246ZM75.0592 71.8219C73.2215 74.4646 70.9478 76.7831 68.3412 78.6762V71.6424C70.8694 69.9693 73.1355 67.9344 75.0592 65.6075V71.8219ZM76.9224 68.7407V63.0967C78.2098 61.1672 79.2836 59.0851 80.1052 56.8814C79.9217 61.1424 78.7917 65.1611 76.9224 68.7407ZM51.6083 74.8488C51.5711 74.8444 51.5384 74.8271 51.5 74.8271C51.4616 74.8271 51.429 74.8444 51.3918 74.8488C35.6512 74.7902 22.8633 62.0309 22.8633 46.3525C22.8633 30.6389 35.7096 17.8543 51.5 17.8543C67.2904 17.8543 80.1367 30.6389 80.1367 46.3525C80.1367 62.0309 67.3488 74.7902 51.6083 74.8488Z" fill="black"/>
<path d="M51.5005 22.1787C38.1065 22.1787 27.209 33.023 27.209 46.3526C27.209 59.6822 38.1065 70.5274 51.5005 70.5274C64.8946 70.5274 75.7912 59.6822 75.7912 46.3526C75.7912 33.023 64.8946 22.1787 51.5005 22.1787ZM51.5005 68.673C39.1337 68.673 29.0722 58.66 29.0722 46.3526C29.0722 34.0452 39.1337 24.033 51.5005 24.033C63.8674 24.033 73.9279 34.0452 73.9279 46.3526C73.9279 58.66 63.8674 68.673 51.5005 68.673Z" fill="black"/>
<path d="M60.3763 36.4072C56.6735 36.4072 53.6611 39.4051 53.6611 43.0901C53.6611 43.6026 54.0778 44.0173 54.5928 44.0173H66.1599C66.6749 44.0173 67.0915 43.6026 67.0915 43.0901C67.0915 39.4051 64.0792 36.4072 60.3763 36.4072ZM55.6145 42.163C56.0503 39.9429 58.02 38.2615 60.3763 38.2615C62.7327 38.2615 64.7024 39.9429 65.1382 42.163H55.6145Z" fill="black"/>
<path d="M61.8117 39.2856H58.9404C58.4255 39.2856 58.0088 39.7004 58.0088 40.2131C58.0088 40.7257 58.4255 41.1405 58.9404 41.1405H61.8117C62.3267 41.1405 62.7434 40.7257 62.7434 40.2131C62.7434 39.7004 62.3267 39.2856 61.8117 39.2856Z" fill="black"/>
<path d="M49.3396 43.0901C49.3396 39.4051 46.3273 36.4072 42.6244 36.4072C38.9215 36.4072 35.9092 39.4051 35.9092 43.0901C35.9092 43.6026 36.3259 44.0173 36.8408 44.0173H48.408C48.9229 44.0173 49.3396 43.6026 49.3396 43.0901ZM37.8625 42.163C38.2983 39.9429 40.268 38.2615 42.6244 38.2615C44.9808 38.2615 46.9505 39.9429 47.3863 42.163H37.8625Z" fill="black"/>
<path d="M44.0598 39.2856H41.1885C40.6735 39.2856 40.2568 39.7004 40.2568 40.2131C40.2568 40.7257 40.6735 41.1405 41.1885 41.1405H44.0598C44.5747 41.1405 44.9914 40.7257 44.9914 40.2131C44.9914 39.7004 44.5747 39.2856 44.0598 39.2856Z" fill="black"/>
</svg>
