<svg width="26" height="30" viewBox="0 0 26 30" fill="none" xmlns="http://www.w3.org/2000/svg">
<path fill-rule="evenodd" clip-rule="evenodd" d="M0 17V13C0 5.8203 5.8203 0 13 0C20.1797 0 26 5.8203 26 13V17C26 24.1797 20.1797 30 13 30C5.8203 30 0 24.1797 0 17Z" fill="#FFC327"/>
<path d="M18.3266 13.4492H7.67346C7.45397 13.4492 7.27637 13.6269 7.27637 13.8466C7.27637 17.0048 9.84387 19.5744 13 19.5744C16.1562 19.5744 18.7237 17.0048 18.7237 13.8466C18.7237 13.6269 18.5461 13.4492 18.3266 13.4492ZM13 18.7797C10.4155 18.7797 8.28925 16.779 8.08644 14.2439H17.9136C17.7108 16.779 15.5846 18.7797 13 18.7797Z" fill="black"/>
<path d="M13 0C5.83185 0 0 5.83532 0 13.0082V16.9918C0 21.4052 2.20973 25.3096 5.57812 27.6625C5.57829 27.6627 5.57858 27.6628 5.57875 27.663C7.68479 29.1339 10.2426 30 13 30C17.4445 30 21.3737 27.7554 23.7191 24.3409C23.7209 24.3391 23.7217 24.3365 23.7235 24.3347C25.1582 22.2434 26 19.7145 26 16.9918V13.0082C26 5.83532 20.1681 0 13 0ZM2.16421 22.6032C1.36749 21.0691 0.885815 19.3467 0.807604 17.5206C1.15782 18.4651 1.61548 19.3574 2.16421 20.1843V22.6032ZM5.46191 26.5871C4.50091 25.8295 3.65572 24.932 2.95839 23.9237V21.2604C3.68567 22.1449 4.529 22.9294 5.46191 23.5964V26.5871ZM9.06401 28.55C8.06373 28.2079 7.12103 27.7412 6.25608 27.1652V24.1256C7.12983 24.6583 8.07153 25.0894 9.06401 25.4057V28.55ZM12.6029 29.1952C11.6572 29.1647 10.7382 29.0279 9.85819 28.7931V25.6304C10.7411 25.8506 11.6596 25.9782 12.6029 26.0067V29.1952ZM16.1399 28.7936C15.2604 29.0281 14.3421 29.1648 13.3971 29.1952V26.0067C14.3397 25.9782 15.2575 25.8507 16.1399 25.6309V28.7936ZM19.3841 27.3962C18.6192 27.8679 17.7979 28.2554 16.934 28.5506V25.4063C17.793 25.1328 18.6124 24.7707 19.3841 24.3334V27.3962ZM23.0416 23.9237C22.2583 25.0562 21.2892 26.0499 20.1782 26.8612V23.8467C21.2558 23.1297 22.2217 22.2576 23.0416 21.2604V23.9237ZM23.8358 22.6032V20.1843C24.3845 19.3574 24.8422 18.4651 25.1924 17.5206C25.1142 19.3467 24.6325 21.0691 23.8358 22.6032ZM13.0461 25.2209C13.0303 25.219 13.0164 25.2116 13 25.2116C12.9836 25.2116 12.9697 25.219 12.9539 25.2209C6.24479 25.1958 0.794177 19.7275 0.794177 13.0082C0.794177 6.2738 6.26966 0.794702 13 0.794702C19.7303 0.794702 25.2058 6.2738 25.2058 13.0082C25.2058 19.7275 19.7552 25.1958 13.0461 25.2209Z" fill="black"/>
<path d="M13.0003 2.64795C7.29134 2.64795 2.64648 7.29548 2.64648 13.0082C2.64648 18.7209 7.29134 23.3688 13.0003 23.3688C18.7092 23.3688 23.3536 18.7209 23.3536 13.0082C23.3536 7.29548 18.7092 2.64795 13.0003 2.64795ZM13.0003 22.5741C7.72914 22.5741 3.44066 18.2828 3.44066 13.0082C3.44066 7.73358 7.72914 3.44265 13.0003 3.44265C18.2714 3.44265 22.5595 7.73358 22.5595 13.0082C22.5595 18.2828 18.2714 22.5741 13.0003 22.5741Z" fill="black"/>
<path d="M16.7831 8.74609C15.2048 8.74609 13.9209 10.0309 13.9209 11.6102C13.9209 11.8298 14.0985 12.0076 14.318 12.0076H19.2482C19.4677 12.0076 19.6453 11.8298 19.6453 11.6102C19.6453 10.0309 18.3614 8.74609 16.7831 8.74609ZM14.7535 11.2129C14.9392 10.2614 15.7788 9.5408 16.7831 9.5408C17.7875 9.5408 18.627 10.2614 18.8128 11.2129H14.7535Z" fill="black"/>
<path d="M17.3944 9.97949H16.1705C15.951 9.97949 15.7734 10.1573 15.7734 10.377C15.7734 10.5967 15.951 10.7744 16.1705 10.7744H17.3944C17.6139 10.7744 17.7915 10.5967 17.7915 10.377C17.7915 10.1573 17.6139 9.97949 17.3944 9.97949Z" fill="black"/>
<path d="M12.0789 11.6102C12.0789 10.0309 10.795 8.74609 9.21671 8.74609C7.63844 8.74609 6.35449 10.0309 6.35449 11.6102C6.35449 11.8298 6.5321 12.0076 6.75158 12.0076H11.6818C11.9013 12.0076 12.0789 11.8298 12.0789 11.6102ZM7.18706 11.2129C7.37281 10.2614 8.21236 9.5408 9.21671 9.5408C10.2211 9.5408 11.0606 10.2614 11.2464 11.2129H7.18706Z" fill="black"/>
<path d="M9.82894 9.97949H8.6051C8.38561 9.97949 8.20801 10.1573 8.20801 10.377C8.20801 10.5967 8.38561 10.7744 8.6051 10.7744H9.82894C10.0484 10.7744 10.226 10.5967 10.226 10.377C10.226 10.1573 10.0484 9.97949 9.82894 9.97949Z" fill="black"/>
</svg>
